<?xml version="1.0" encoding="UTF-8"?>
<!DOCTYPE svg PUBLIC "-//W3C//DTD SVG 1.1//EN" "http://www.w3.org/Graphics/SVG/1.1/DTD/svg11.dtd">
<svg xmlns="http://www.w3.org/2000/svg" version="1.1" width="333px" height="343px" style="shape-rendering:geometricPrecision; text-rendering:geometricPrecision; image-rendering:optimizeQuality; fill-rule:evenodd; clip-rule:evenodd" xmlns:xlink="http://www.w3.org/1999/xlink">
<g><path style="opacity:0.806" fill="#fafffe" d="M 186.5,17.5 C 188.329,54.82 189.162,92.4867 189,130.5C 190,131.833 191,131.833 192,130.5C 192.333,112.167 192.667,93.8333 193,75.5C 196.026,72.9737 199.193,70.6404 202.5,68.5C 203.5,88.1554 203.833,107.822 203.5,127.5C 204.5,127.5 205.5,127.5 206.5,127.5C 206.333,106.497 206.5,85.4974 207,64.5C 209.979,62.3555 212.812,60.0222 215.5,57.5C 216.504,130.556 217.004,203.223 217,275.5C 214.469,278.888 211.302,281.221 207.5,282.5C 207.339,258.638 207.005,234.971 206.5,211.5C 205.5,211.5 204.5,211.5 203.5,211.5C 203.667,236.502 203.5,261.502 203,286.5C 200.273,289.731 197.106,292.397 193.5,294.5C 192.667,275.842 192.167,257.176 192,238.5C 191.586,238.957 191.086,239.291 190.5,239.5C 189.667,258.491 189.167,277.491 189,296.5C 185.849,299.407 182.516,302.074 179,304.5C 177.868,291.529 177.201,278.529 177,265.5C 176.586,265.957 176.086,266.291 175.5,266.5C 174.833,280.5 174.167,294.5 173.5,308.5C 171.116,310.885 168.45,312.885 165.5,314.5C 164.468,304.188 163.801,293.855 163.5,283.5C 162.167,283.5 160.833,283.5 159.5,283.5C 159.832,295.518 159.499,307.518 158.5,319.5C 156.766,322.2 154.432,324.2 151.5,325.5C 150.673,321.541 150.173,317.541 150,313.5C 149.833,284.161 149.333,254.828 148.5,225.5C 147.575,226.641 146.741,226.641 146,225.5C 145.833,257.172 145.333,288.839 144.5,320.5C 141.213,317.924 138.38,314.924 136,311.5C 134.883,227.97 134.716,144.97 135.5,62.5C 138.824,65.9939 141.991,69.6606 145,73.5C 145.333,93.1667 145.667,112.833 146,132.5C 147.011,131.663 148.178,131.33 149.5,131.5C 149.167,114.487 149.501,97.4869 150.5,80.5C 155.705,84.3301 158.705,89.3301 159.5,95.5C 160.5,95.5 161.5,95.5 162.5,95.5C 162.167,76.1552 162.5,56.8218 163.5,37.5C 166.52,34.6454 169.687,31.9787 173,29.5C 173.951,83.3633 174.451,137.363 174.5,191.5C 175.5,191.5 176.5,191.5 177.5,191.5C 177.333,136.166 177.5,80.8323 178,25.5C 181.333,23.3329 184.166,20.6662 186.5,17.5 Z"/></g>
<g><path style="opacity:0.563" fill="#fafffe" d="M 94.5,92.5 C 98.2945,94.3709 100.961,97.3709 102.5,101.5C 102.167,101.833 101.833,102.167 101.5,102.5C 97.5497,100.229 95.2164,96.8957 94.5,92.5 Z"/></g>
<g><path style="opacity:0.89" fill="#fafffe" d="M 244.5,95.5 C 246.287,147.832 246.787,200.832 246,254.5C 242.974,257.026 239.807,259.36 236.5,261.5C 235.668,251.851 235.168,242.184 235,232.5C 234.333,189.5 234.333,146.5 235,103.5C 238.358,100.969 241.524,98.3021 244.5,95.5 Z"/></g>
<g><path style="opacity:0.879" fill="#fafffe" d="M 229.5,107.5 C 230.833,133.491 231.5,159.825 231.5,186.5C 231.333,212.833 231.167,239.167 231,265.5C 228.629,268.206 225.963,270.539 223,272.5C 222.815,265.253 222.315,258.087 221.5,251C 221.358,205.609 221.525,160.109 222,114.5C 224.396,111.933 226.896,109.6 229.5,107.5 Z"/></g>
<g><path style="opacity:0.852" fill="#fafffe" d="M 106.5,111.5 C 110.672,114.793 114.172,118.793 117,123.5C 117.333,138.5 117.667,153.5 118,168.5C 118.414,168.043 118.914,167.709 119.5,167.5C 120.167,154.5 120.833,141.5 121.5,128.5C 124.521,131.686 127.354,135.02 130,138.5C 130.667,192.167 130.667,245.833 130,299.5C 129.667,300.5 129.333,301.5 129,302.5C 126.333,299.167 123.667,295.833 121,292.5C 120.5,270.836 120.333,249.169 120.5,227.5C 119.5,227.5 118.5,227.5 117.5,227.5C 117.833,246.845 117.5,266.178 116.5,285.5C 112.48,282.314 108.98,278.647 106,274.5C 105.184,220.145 105.35,165.811 106.5,111.5 Z"/></g>
<g><path style="opacity:0.939" fill="#fafffe" d="M 273.5,133.5 C 274.222,133.918 274.722,134.584 275,135.5C 275.667,168.167 275.667,200.833 275,233.5C 271.974,236.026 268.807,238.36 265.5,240.5C 264.333,207.172 264.167,173.838 265,140.5C 268.023,138.302 270.856,135.969 273.5,133.5 Z"/></g>
<g><path style="opacity:0.918" fill="#fafffe" d="M 259.5,144.5 C 260.428,177.846 260.928,210.846 261,243.5C 257.974,246.026 254.807,248.36 251.5,250.5C 250.719,249.271 250.219,247.938 250,246.5C 249.333,215.5 249.333,184.5 250,153.5C 253.365,150.633 256.531,147.633 259.5,144.5 Z"/></g>
<g><path style="opacity:0.583" fill="#fafffe" d="M 80.5,153.5 C 84.4569,155.457 87.4569,158.457 89.5,162.5C 89.1667,162.833 88.8333,163.167 88.5,163.5C 84.6757,161.018 82.0091,157.684 80.5,153.5 Z"/></g>
<g><path style="opacity:0.928" fill="#fafffe" d="M 91.5,169.5 C 94.7684,173.271 98.2684,176.938 102,180.5C 102.833,209.839 102.667,239.172 101.5,268.5C 98.1756,265.006 95.009,261.339 92,257.5C 91.5,228.169 91.3334,198.835 91.5,169.5 Z"/></g>
</svg>
